<?xml version="1.0" encoding="UTF-8" standalone="no"?>
<!DOCTYPE svg PUBLIC "-//W3C//DTD SVG 1.1//EN" "http://www.w3.org/Graphics/SVG/1.1/DTD/svg11.dtd">
<svg xmlns="http://www.w3.org/2000/svg" xmlns:xlink="http://www.w3.org/1999/xlink" version="1.1" width="6233.36pt" height="3902.79pt" viewBox="0 0 6233.36 3902.79">
<g enable-background="new">
<g id="Layer-1" data-name="Layer 1">
</g>
<g id="Layer-1" data-name="Layer 2">
<clipPath id="cp1">
<path transform="matrix(1,0,0,-1,0,3902.79)" d="M 0 3902.788 L 6233.363 3902.788 L 6233.363 0 L 0 0 Z "/>
</clipPath>
<g clip-path="url(#cp1)">
<path transform="matrix(1,0,0,-1,3284.7213,3578.4029)" d="M 0 0 C -340.25 26.488 -655.034 127.227 -926.531 282.96 C -657.279 70.38 -324.203 -67.376 43.511 -96.003 C 546.232 -135.139 1016.536 37.249 1367.177 346.195 C 988.283 93.687 509.385 -39.655 0 0 " fill="#961b1f"/>
<path transform="matrix(1,0,0,-1,3083.6314,228.79444)" d="M 0 0 C 332.449 77.13 662.958 75.787 968.733 8.974 C 647.991 130.675 288.9 161.815 -70.384 78.459 C -561.58 -35.5 -958.208 -341.424 -1199.626 -741.567 C -914.281 -386.745 -497.707 -115.47 0 0 " fill="#961b1f"/>
<path transform="matrix(1,0,0,-1,3160.5782,779.4209)" d="M 0 0 C 191.05 44.324 380.984 43.553 556.706 5.157 C 372.384 75.095 166.023 92.991 -40.448 45.088 C -322.725 -20.401 -550.657 -196.207 -689.394 -426.159 C -525.413 -222.252 -286.019 -66.357 0 0 " fill="#961b1f"/>
<path transform="matrix(1,0,0,-1,3515.194,3041.2017)" d="M 0 0 C -185.167 -9.669 -361.839 22.455 -519.06 87.252 C -359.049 -8.328 -169.918 -59.108 30.195 -48.658 C 303.781 -34.373 545.019 91.587 712.185 282.696 C 525.828 120.005 277.212 14.475 0 0 " fill="#961b1f"/>
<path transform="matrix(1,0,0,-1,619.67,3792.8116)" d="M 0 0 C -108.073 17.648 -197.229 53.413 -267.56 107.532 C -337.891 161.604 -390.575 224.335 -425.564 295.866 C -460.623 367.303 -478.271 441.658 -478.671 518.931 C -479.024 596.203 -463.282 666.887 -431.446 730.889 C -399.587 794.938 -352.856 846.751 -291.301 886.375 C -229.747 926.047 -154.498 943.506 -65.413 938.894 C -41.436 934.188 -17.883 924.07 5.247 908.682 C 41.554 882.281 63.555 848.116 71.155 805.997 C 78.826 763.878 69.461 724.677 43.154 688.394 C 17.177 650.417 -17.083 627.122 -59.813 618.463 C -102.52 609.757 -142.027 618.557 -178.357 644.911 C -192.852 653.711 -204.993 663.876 -214.852 675.594 C -249.842 645.946 -272.76 604.721 -283.631 552.014 C -294.502 499.213 -292.666 444.764 -278.031 388.527 C -263.465 332.338 -235.088 280.713 -192.852 233.888 C -150.686 187.017 -93.367 155.722 -20.918 140.004 C 29.13 129.368 81.649 130.309 136.662 142.827 C 191.605 155.345 243.277 177.604 291.772 209.652 C 340.197 241.7 382.221 282.266 417.705 331.35 C 453.188 380.48 476.742 435.399 488.295 496.248 C 504.06 575.732 500.248 649.052 476.789 716.348 C 453.376 783.549 420.058 847.974 376.927 909.576 C 333.75 971.13 285.654 1031.508 232.547 1090.616 C 179.44 1149.77 130.686 1212.642 86.355 1279.185 C 41.954 1345.775 6.118 1416.977 -21.177 1492.979 C -48.519 1568.981 -56.943 1653.971 -46.448 1747.997 C -36.424 1829.505 -11.2 1899.013 29.365 1956.332 C 69.837 2013.698 118.591 2058.97 175.581 2092.194 C 232.524 2125.466 294.549 2146.69 361.774 2156.102 C 428.952 2165.467 495.848 2163.302 562.508 2149.655 C 632.816 2135.207 694.206 2110.595 746.654 2075.911 C 799.079 2041.181 840.68 2002.121 871.504 1958.638 C 902.282 1915.154 922.094 1870.306 930.706 1824.046 C 939.365 1777.786 936.094 1735.197 920.965 1696.372 C 903.27 1653.359 872.563 1626.065 828.821 1614.582 C 785.055 1602.958 742.889 1608.135 702.418 1629.924 C 663.97 1650.395 637.969 1681.454 624.345 1722.961 C 610.651 1764.468 613.921 1805.222 634.087 1845.364 C 654.181 1885.46 681.664 1909.695 716.536 1918.213 C 697.994 1943.579 677.852 1963.25 655.923 1977.321 C 634.087 1991.298 609.898 2002.074 583.403 2009.698 C 536.272 2022.828 488.53 2027.44 440.247 2023.581 C 391.939 2019.722 348.809 2007.439 310.761 1986.78 C 272.713 1965.979 241.888 1937.367 218.288 1900.895 C 194.64 1864.33 183.934 1819.999 186.146 1767.762 C 185.793 1711.385 205.44 1654.16 245.112 1596.182 C 284.76 1538.109 331.938 1478.014 386.692 1415.754 C 441.47 1353.493 497.589 1287.186 555.214 1216.784 C 612.792 1146.476 661.052 1069.392 699.924 985.719 C 738.842 901.999 761.902 810.938 769.196 712.442 C 776.49 613.992 756.819 505.472 710.136 386.833 C 681.147 318.22 641.028 257.465 589.756 204.476 C 538.461 151.58 480.412 108.379 415.611 74.967 C 350.762 41.601 282.125 18.306 209.794 4.988 C 137.415 -8.283 67.461 -9.93 0 0 " fill="#961b1f"/>
<path transform="matrix(1,0,0,-1,1494.1863,2706.478)" d="M 0 0 C 13.436 31.342 26.448 64.519 39.107 99.203 C 51.743 133.886 63.413 167.157 74.167 198.781 C 84.896 230.406 93.697 259.348 100.473 285.56 C 107.25 311.867 112.921 333.467 117.626 350.456 C 123.368 413.375 129.18 472.436 135.109 527.449 C 140.992 582.556 145.745 631.593 149.345 674.699 C 154.969 723.548 159.392 770.372 162.569 815.127 L 339.326 858.234 C 330.032 759.219 321.796 659.593 314.643 559.355 C 307.467 473.283 299.349 380.245 290.313 280.525 C 281.207 180.663 273.136 87.673 266.007 1.553 C 288.313 61.507 313.631 123.438 341.985 187.628 C 370.292 251.63 400.057 309.89 431.234 362.362 C 462.388 414.74 495.213 457 529.543 489.142 C 563.92 521.237 598.274 535.355 632.675 531.402 C 654.205 529.661 668.911 514.272 676.841 485.518 C 684.723 456.67 688.488 421.517 688.041 380.104 C 687.57 338.644 684.723 294.455 679.5 247.489 C 674.229 200.429 669.335 157.463 664.77 118.544 C 660.158 79.626 657.923 47.437 657.993 21.977 C 658.017 -3.577 663.076 -15.059 673.005 -12.612 C 687.97 -8.988 703.312 .047 719.171 14.447 C 734.983 28.848 750.419 46.684 765.455 67.955 C 780.49 89.179 795.55 112.238 810.609 136.945 C 825.692 161.792 840.939 185.699 856.398 208.852 C 871.834 231.912 886.469 247.771 900.164 256.43 C 913.882 265.042 925.106 267.771 933.765 264.619 C 942.471 261.465 947.365 253.842 948.565 241.841 C 949.718 229.794 946.33 214.923 938.377 197.134 C 908.964 130.215 877.152 69.696 842.845 15.577 C 812.35 -32.283 776.302 -77.508 734.842 -120.191 C 693.382 -162.875 646.087 -190.64 592.956 -203.582 C 553.143 -213.323 523.519 -209.088 504.177 -190.922 C 484.789 -172.851 472.436 -147.251 467.024 -114.262 C 461.612 -81.32 460.482 -44.236 463.635 -3.012 C 466.765 38.166 470.624 76.473 475.165 111.909 C 479.73 147.298 483.495 176.757 486.553 200.429 C 489.565 223.959 486.93 234.829 478.647 232.806 C 470.318 230.782 459.07 217.464 444.858 192.852 C 430.599 168.334 415.211 137.698 398.645 101.132 C 382.08 64.566 364.95 24.801 347.326 -18.212 C 329.655 -61.225 313.137 -101.697 297.819 -139.721 C 282.454 -177.746 269.748 -210.311 259.677 -237.371 C 249.512 -264.524 243.442 -280.901 241.347 -286.69 L 241.936 -289.184 L 45.272 -337.185 C 50.895 -302.361 56.19 -257.559 61.272 -202.687 C 66.355 -147.815 72.002 -86.261 78.19 -17.93 C 65.202 -43.907 52.66 -61.037 40.613 -69.272 C 28.518 -77.508 18.071 -79.578 9.2 -75.578 C .306 -71.625 -5.459 -62.449 -8.047 -48.142 C -10.635 -33.836 -7.953 -17.789 0 0 " fill="#961b1f"/>
<path transform="matrix(1,0,0,-1,2666.8748,2183.171)" d="M 0 0 C -27.318 10.965 -50.307 7.953 -69.061 -8.847 C -87.79 -25.789 -102.638 -47.86 -113.556 -75.155 C -124.474 -102.45 -132.333 -131.58 -137.062 -162.639 C -141.839 -193.699 -142.992 -217.747 -140.568 -234.688 C -111.626 -238.218 -84.332 -229.37 -58.707 -208.146 C -33.107 -187.016 -12.753 -162.216 2.306 -133.933 C 17.389 -105.65 25.742 -78.543 27.342 -52.66 C 28.942 -26.777 19.836 -9.224 0 0 M 246.312 -177.275 C 255.959 -159.157 267.536 -145.321 281.09 -135.862 C 294.596 -126.403 306.196 -121.744 315.961 -122.074 C 325.656 -122.309 332.244 -127.768 335.726 -138.309 C 339.209 -148.945 336.715 -165.792 328.291 -188.993 C 318.22 -212.476 301.608 -245.512 278.619 -288.101 C 255.583 -330.644 227.865 -373.892 195.534 -417.799 C 163.157 -461.8 126.168 -501.142 84.52 -535.919 C 42.895 -570.697 -.941 -591.027 -46.966 -597.003 C -99.649 -604.533 -145.462 -595.074 -184.475 -568.485 C -223.488 -541.99 -254.242 -505.989 -276.76 -460.482 C -299.255 -415.022 -313.161 -363.397 -318.455 -305.796 C -323.726 -248.147 -317.89 -192.711 -300.996 -139.298 C -284.101 -85.979 -255.771 -38.166 -215.958 4.094 C -176.146 46.307 -123.062 75.484 -56.637 91.673 C 3.106 106.262 50.66 96.802 86.12 63.249 C 121.556 29.648 141.321 -11.718 145.368 -60.754 C 149.463 -109.932 136.427 -159.298 106.309 -208.805 C 76.19 -258.312 25.413 -291.866 -45.93 -309.231 C -57.554 -312.102 -68.143 -313.749 -77.649 -314.314 C -87.179 -314.926 -96.52 -314.549 -105.626 -313.231 C -114.732 -311.961 -124.027 -309.796 -133.556 -306.878 C -132.85 -324.244 -128.709 -341.279 -121.109 -357.891 C -113.556 -374.504 -103.485 -388.81 -90.873 -400.622 C -78.355 -412.481 -63.437 -421.234 -46.307 -426.693 C -29.13 -432.199 -10.588 -432.434 9.318 -427.587 C 35.86 -421.14 60.566 -408.999 83.485 -391.069 C 106.379 -373.233 127.627 -352.197 147.251 -328.055 C 166.828 -303.914 184.805 -278.454 201.158 -251.583 C 217.441 -224.806 232.5 -200.005 246.312 -177.275 " fill="#961b1f"/>
<path transform="matrix(1,0,0,-1,3229.501,2045.9437)" d="M 0 0 C -27.318 10.918 -50.331 7.906 -69.061 -8.894 C -87.791 -25.836 -102.662 -47.907 -113.556 -75.155 C -124.497 -102.45 -132.356 -131.627 -137.062 -162.687 C -141.815 -193.699 -142.992 -217.747 -140.592 -234.735 C -111.626 -238.265 -84.308 -229.37 -58.708 -208.193 C -33.107 -187.016 -12.777 -162.216 2.329 -133.98 C 17.389 -105.65 25.765 -78.543 27.365 -52.66 C 28.942 -26.824 19.836 -9.271 0 0 M 246.335 -177.275 C 255.959 -159.157 267.56 -145.321 281.066 -135.909 C 294.572 -126.403 306.196 -121.791 315.961 -122.121 C 325.679 -122.309 332.267 -127.815 335.726 -138.309 C 339.185 -148.992 336.714 -165.792 328.314 -188.993 C 318.196 -212.476 301.631 -245.559 278.642 -288.101 C 255.583 -330.691 227.888 -373.939 195.511 -417.799 C 163.134 -461.8 126.168 -501.142 84.543 -535.919 C 42.919 -570.697 -.918 -591.027 -46.942 -597.003 C -99.65 -604.58 -145.463 -595.121 -184.475 -568.532 C -223.465 -542.037 -254.242 -505.989 -276.76 -460.482 C -299.278 -415.022 -313.137 -363.444 -318.432 -305.843 C -323.702 -248.195 -317.914 -192.711 -300.996 -139.345 C -284.125 -86.026 -255.748 -38.213 -215.958 4.047 C -176.146 46.26 -123.062 75.484 -56.637 91.673 C 3.106 106.214 50.66 96.802 86.143 63.202 C 121.556 29.601 141.345 -11.718 145.392 -60.802 C 149.462 -109.979 136.45 -159.298 106.308 -208.805 C 76.19 -258.359 25.436 -291.866 -45.907 -309.278 C -57.531 -312.102 -68.119 -313.796 -77.625 -314.314 C -87.179 -314.973 -96.497 -314.596 -105.626 -313.279 C -114.732 -312.008 -124.027 -309.843 -133.556 -306.925 C -132.827 -324.291 -128.686 -341.326 -121.109 -357.938 C -113.532 -374.504 -103.462 -388.81 -90.896 -400.669 C -78.332 -412.528 -63.437 -421.234 -46.284 -426.74 C -29.107 -432.199 -10.589 -432.482 9.318 -427.634 C 35.86 -421.14 60.59 -409.046 83.508 -391.069 C 106.379 -373.233 127.627 -352.197 147.274 -328.055 C 166.828 -303.961 184.828 -278.454 201.158 -251.63 C 217.441 -224.806 232.5 -200.052 246.335 -177.275 " fill="#961b1f"/>
<path transform="matrix(1,0,0,-1,3550.1444,2052.1087)" d="M 0 0 C -19.765 23.248 -28.613 54.072 -26.495 92.426 C -24.401 130.733 -15.812 167.534 -.659 202.876 C 14.448 238.218 34.589 267.301 59.813 290.172 C 84.99 313.043 111.673 320.808 139.815 313.655 C 167.934 306.408 182.334 288.807 182.969 260.901 C 183.652 232.853 178.31 202.546 166.922 169.934 C 154.71 133.556 136.427 93.038 112.144 48.425 C 129.133 43.719 149.886 36.095 174.499 25.365 C 199.064 14.683 223.323 -.094 247.253 -18.918 C 271.16 -37.648 293.325 -59.954 313.678 -85.743 C 334.032 -111.579 348.268 -141.039 356.362 -174.263 C 357.986 -180.899 358.974 -186.781 359.397 -192.005 C 359.727 -197.181 360.527 -202.264 361.75 -207.205 C 383.021 -179.204 403.61 -149.98 423.493 -119.626 C 443.353 -89.32 461.612 -61.554 478.365 -36.33 C 493.848 -13.271 508.013 2.494 520.907 10.918 C 533.755 19.342 544.579 21.977 553.284 18.824 C 561.944 15.671 567.261 8.141 569.308 -3.624 C 571.261 -15.483 568.297 -30.26 560.344 -48.048 C 529.755 -102.967 497.754 -155.58 464.341 -205.982 C 434.223 -248.477 399.398 -291.254 359.774 -334.267 C 320.196 -377.327 277.937 -411.446 233.041 -436.435 C 203.111 -450.788 170.545 -461.376 135.298 -468.2 C 97.932 -473.8 66.025 -469.235 39.625 -454.6 C 13.2 -439.964 -5.859 -421.281 -17.53 -398.645 C -29.177 -376.01 -32.142 -352.997 -26.448 -329.561 C -20.73 -306.219 -3.53 -288.384 25.13 -276.101 C 58.778 -262.642 80.096 -261.889 89.155 -273.701 C 98.214 -285.607 102.991 -301.561 103.485 -321.655 C 103.979 -341.75 105.132 -360.762 106.873 -378.833 C 108.662 -396.857 119.721 -404.293 140.004 -401.093 C 161.98 -397.469 175.84 -384.01 181.558 -360.574 C 187.299 -337.279 186.122 -308.996 178.028 -275.819 C 169.934 -242.594 155.957 -206.876 136.098 -168.663 C 116.215 -130.45 91.673 -94.638 62.449 -61.272 L 7.671 -182.828 C -4.941 -210.547 -17.6 -228.994 -30.283 -238.218 C -42.966 -247.489 -54.166 -250.218 -63.884 -246.406 C -73.578 -242.641 -79.767 -233.559 -82.355 -219.253 C -84.943 -204.946 -82.261 -188.899 -74.308 -171.11 Z " fill="#961b1f"/>
<path transform="matrix(1,0,0,-1,4028.4625,2088.439)" d="M 0 0 C 13.483 31.342 26.495 64.472 39.154 99.203 C 51.766 133.886 63.46 167.11 74.213 198.781 C 84.943 230.406 93.744 259.301 100.473 285.56 C 107.297 311.82 112.967 333.467 117.673 350.456 C 123.415 413.328 129.227 472.388 135.156 527.449 C 141.039 582.509 145.792 631.593 149.368 674.699 C 155.016 723.548 159.439 770.325 162.616 815.08 L 339.373 858.187 C 330.079 759.219 321.843 659.593 314.643 559.355 C 307.49 473.236 299.396 380.245 290.36 280.478 C 281.254 180.663 273.136 87.626 266.03 1.553 C 288.36 61.46 313.655 123.438 342.032 187.581 C 370.339 251.583 400.081 309.843 431.281 362.315 C 462.435 414.693 495.212 457 529.59 489.095 C 563.967 521.237 598.321 535.355 632.675 531.402 C 654.252 529.614 668.958 514.272 676.888 485.471 C 684.77 456.67 688.488 421.517 688.088 380.057 C 687.617 338.644 684.77 294.407 679.546 247.442 C 674.276 200.429 669.358 157.416 664.817 118.544 C 660.205 79.626 657.946 47.39 658.04 21.93 C 658.063 -3.577 663.076 -15.059 673.052 -12.612 C 687.97 -8.988 703.359 .047 719.218 14.448 C 735.03 28.848 750.466 46.684 765.501 67.955 C 780.514 89.179 795.597 112.238 810.656 136.945 C 825.715 161.745 840.986 185.699 856.445 208.852 C 871.881 231.912 886.517 247.771 900.211 256.43 C 913.929 265.042 925.153 267.771 933.812 264.618 C 942.518 261.466 947.412 253.795 948.612 241.842 C 949.765 229.794 946.33 214.923 938.424 197.134 C 909.011 130.215 877.199 69.696 842.892 15.577 C 812.397 -32.283 776.349 -77.555 734.889 -120.191 C 693.429 -162.875 646.134 -190.687 593.003 -203.629 C 553.19 -213.323 523.566 -209.088 504.201 -190.969 C 484.836 -172.851 472.459 -147.251 467.071 -114.262 C 461.659 -81.32 460.529 -44.283 463.659 -3.012 C 466.812 38.119 470.647 76.473 475.212 111.862 C 479.753 147.298 483.518 176.757 486.601 200.429 C 489.612 223.959 486.977 234.83 478.694 232.806 C 470.365 230.782 459.07 217.417 444.905 192.852 C 430.646 168.334 415.257 137.698 398.692 101.085 C 382.127 64.566 364.974 24.754 347.35 -18.212 C 329.655 -61.225 313.184 -101.744 297.843 -139.721 C 282.501 -177.793 269.795 -210.358 259.677 -237.371 C 249.559 -264.524 243.488 -280.948 241.394 -286.737 L 241.982 -289.231 L 45.319 -337.185 C 50.919 -302.408 56.237 -257.559 61.319 -202.687 C 66.402 -147.863 72.049 -86.261 78.237 -17.93 C 65.225 -43.954 52.707 -61.037 40.66 -69.272 C 28.565 -77.508 18.118 -79.625 9.224 -75.578 C .353 -71.625 -5.412 -62.449 -8 -48.142 C -10.589 -33.883 -7.906 -17.789 0 0 " fill="#961b1f"/>
<path transform="matrix(1,0,0,-1,5291.6477,1719.7708)" d="M 0 0 C 14.024 64.943 12.141 112.426 -5.694 142.404 C -23.577 172.287 -50.542 181.981 -86.638 171.393 C -114.074 161.181 -137.604 136.992 -157.322 98.779 C -176.993 60.566 -192.405 13.695 -203.464 -41.742 C -209.464 -74.825 -214.217 -107.579 -217.723 -140.145 C -221.276 -172.616 -222.853 -202.029 -222.594 -228.382 C -222.359 -254.689 -219.771 -276.054 -214.876 -292.431 C -210.029 -308.808 -202.17 -317.467 -191.393 -318.314 C -171.11 -322.267 -150.78 -313.702 -130.333 -292.901 C -109.956 -272.148 -91.344 -245.606 -74.59 -213.37 C -57.837 -181.181 -42.684 -145.839 -29.201 -107.344 C -15.742 -68.896 -6.024 -33.083 0 0 M -112.144 275.96 C -54.519 284.76 -6.965 269.983 30.565 231.629 C 31.413 242.406 32.236 251.865 32.895 259.912 C 33.577 268.007 34.918 274.925 37.036 280.713 L 40.895 297.419 L 220.123 341.138 C 217.323 287.725 213.747 237.653 209.323 190.828 C 205.323 149.416 201.699 108.521 198.334 68.143 C 195.017 27.812 192.428 -3.2 190.664 -24.707 C 187.063 -67.766 183.84 -106.826 180.993 -141.839 C 178.051 -176.804 181.604 -193.087 191.581 -190.687 C 206.499 -187.016 221.864 -177.981 237.724 -163.628 C 253.559 -149.18 268.948 -131.392 284.031 -110.073 C 299.042 -88.896 314.125 -65.79 329.185 -41.083 C 344.22 -16.283 359.491 7.624 374.927 30.777 C 390.41 53.837 404.999 69.743 418.74 78.355 C 432.458 87.014 443.658 89.743 452.341 86.543 C 461.047 83.39 465.941 75.767 467.118 63.813 C 468.294 51.766 464.859 36.895 456.905 19.059 C 427.493 -47.813 395.681 -108.332 361.421 -162.451 C 330.879 -210.358 294.854 -255.583 253.418 -298.266 C 211.911 -340.903 164.616 -368.715 111.532 -381.657 C 66.731 -392.575 34.965 -386.739 16.235 -364.009 C -2.494 -341.373 -14.024 -310.314 -18.354 -270.877 C -51.39 -329.938 -88.896 -378.174 -130.733 -415.634 C -172.616 -453.094 -214.641 -468.153 -256.854 -460.906 C -286.266 -455.823 -312.385 -442.411 -335.232 -420.717 C -358.08 -399.069 -375.633 -370.315 -387.869 -334.597 C -400.104 -298.972 -406.599 -257.889 -407.399 -211.441 C -408.152 -165.039 -402.175 -113.932 -389.422 -58.072 C -378.363 -16.706 -363.539 23.436 -344.903 62.26 C -326.267 101.132 -304.384 135.909 -279.349 166.593 C -254.312 197.323 -227.441 222.312 -198.735 241.7 C -170.028 260.901 -141.18 272.383 -112.144 275.96 " fill="#961b1f"/>
<path transform="matrix(1,0,0,-1,5979.147,948.08059)" d="M 0 0 C -13.271 3.718 -24.471 -2.494 -33.695 -18.777 C -42.895 -35.107 -50.825 -58.59 -57.39 -89.179 C -64.025 -119.815 -69.531 -156.757 -73.884 -200.052 C -78.308 -243.3 -82.943 -291.066 -87.767 -343.256 C -71.39 -302.267 -55.295 -261.889 -39.507 -221.982 C -23.765 -182.122 -11.436 -146.168 -2.541 -114.073 C 6.353 -82.026 11.789 -55.672 13.765 -34.918 C 15.718 -14.212 11.153 -2.588 0 0 M -118.426 -704.112 C -122.026 -747.172 -125.25 -786.279 -128.097 -821.244 C -131.062 -856.21 -127.485 -872.493 -117.556 -870.093 C -102.638 -866.469 -87.249 -857.434 -71.39 -843.033 C -55.578 -828.586 -39.695 -810.656 -23.836 -789.197 C -7.977 -767.784 7.482 -744.631 22.542 -719.924 C 37.625 -695.076 52.025 -671.358 65.837 -648.628 C 81.32 -625.569 95.908 -609.663 109.603 -601.051 C 123.344 -592.392 134.544 -589.662 143.251 -592.862 C 151.91 -596.015 156.804 -603.639 158.028 -615.639 C 159.181 -627.639 155.769 -642.558 147.815 -660.346 C 118.403 -727.266 86.59 -787.738 52.284 -841.904 C 21.789 -889.764 -14.259 -934.988 -55.719 -977.672 C -97.179 -1020.355 -144.474 -1048.121 -197.558 -1061.062 C -235.771 -1070.38 -264.383 -1066.38 -283.583 -1049.062 C -302.737 -1031.744 -315.208 -1007.555 -321.09 -976.401 C -326.879 -945.342 -328.432 -910.094 -325.75 -870.751 C -323.02 -831.456 -319.067 -793.526 -313.89 -757.102 C -309.961 -715.689 -305.655 -670.276 -300.996 -620.722 C -296.384 -571.261 -291.09 -520.719 -285.207 -469.188 C -279.301 -417.611 -273.842 -366.174 -268.76 -314.784 C -263.724 -263.489 -257.959 -215.017 -251.441 -169.463 C -236.382 -65.602 -205.182 11.953 -157.839 63.013 C -110.497 114.121 -53.978 130.968 11.835 113.65 C 51.531 102.214 77.508 78.637 89.744 42.966 C 101.956 7.2 101.579 -39.86 88.614 -98.403 C 75.625 -156.992 52.001 -226.076 17.812 -305.655 C -16.471 -385.186 -59.131 -475.165 -110.262 -575.497 C -112.897 -600.815 -115.015 -624.628 -116.567 -646.934 C -118.167 -669.382 -118.803 -688.347 -118.426 -704.112 " fill="#961b1f"/>
<path transform="matrix(1,0,0,-1,2518.6829,1854.7859)" d="M 0 0 L -124.191 -27.766 C -144.615 -102.591 -200.711 -157.086 -276.007 -173.934 C -389.328 -199.299 -500.719 -124.144 -528.39 -.518 L -542.649 63.155 L -452.529 83.296 L -440.152 27.954 C -421.281 -56.378 -366.198 -106.214 -294.078 -90.073 C -223.3 -74.261 -193.417 -11.483 -213.582 78.637 L -279.395 372.809 L -189.252 392.998 L -115.815 64.708 L -19.295 86.308 Z " fill="#961b1f"/>
<path transform="matrix(1,0,0,-1,2865.3035,1419.669)" d="M 0 0 L -79.814 -17.883 L -96.379 56.189 L -16.565 74.072 Z M -85.555 92.426 L -165.369 74.543 L -181.934 148.568 L -102.12 166.451 Z M -121.015 -27.107 L -201.464 -45.083 L -218.029 28.989 L -137.58 46.966 Z M 299.513 -290.549 L -376.315 -441.752 L -395.634 -355.491 L -314.526 -337.326 C -284.925 -330.738 -272.407 -311.02 -282.525 -265.936 L -314.761 -121.792 L -223.982 -101.461 L -192.593 -241.747 C -187.275 -265.607 -186.24 -288.337 -189.017 -309.279 L -131.721 -296.431 C -101.485 -289.655 -90.332 -266.877 -98.991 -228.241 L -131.956 -80.896 L -41.86 -60.708 L -10.471 -201.041 C -5.153 -224.853 -4.118 -247.583 -6.847 -268.525 L 50.448 -255.677 C 80.684 -248.901 91.838 -226.124 83.178 -187.487 L 50.213 -40.142 L 140.945 -19.859 L 172.193 -159.439 C 177.534 -183.346 178.569 -206.029 175.322 -227.771 L 280.219 -204.288 Z " fill="#961b1f"/>
<path transform="matrix(1,0,0,-1,3361.763,1778.3606)" d="M 0 0 L -79.861 -17.883 L -96.567 56.802 L -16.706 74.684 Z M -121.038 -27.106 L -200.852 -44.942 L -217.558 29.742 L -137.745 47.578 Z M 79.72 130.027 L -209.935 65.225 L -229.253 151.486 L -170.028 164.757 C -139.792 171.534 -129.603 195.44 -138.827 236.665 L -170.922 380.151 L -80.167 400.481 L -48.778 260.148 C -43.436 236.335 -41.93 214.406 -44.519 192.852 L 60.402 216.288 Z " fill="#961b1f"/>
<path transform="matrix(1,0,0,-1,3791.9622,1212.3696)" d="M 0 0 L -79.814 -17.836 L -96.379 56.237 L -16.565 74.073 Z M -85.555 92.426 L -165.369 74.59 L -181.934 148.615 L -102.12 166.451 Z M -120.991 -27.06 L -201.464 -45.083 L -218.029 28.989 L -137.556 47.013 Z M 170.922 -159.722 C 190.64 -247.912 146.333 -324.808 71.696 -341.515 L -218.617 -406.457 L -218.476 -407.022 L -219.229 -406.599 L -377.586 -441.988 L -396.904 -355.727 L -315.796 -337.609 C -286.196 -330.973 -273.536 -311.961 -283.937 -265.56 L -316.031 -122.074 L -225.253 -101.744 L -193.864 -242.03 C -188.546 -265.889 -187.51 -288.619 -190.287 -309.514 L -132.991 -296.713 C -102.756 -289.937 -91.602 -267.16 -100.261 -228.476 L -133.227 -81.178 L -43.13 -60.99 L -11.741 -201.276 C -6.424 -225.135 -5.388 -247.865 -8.118 -268.76 L 49.154 -255.959 C 79.414 -249.183 90.52 -226.406 81.885 -187.722 L 48.919 -40.425 L 139.674 -20.095 Z " fill="#961b1f"/>
<path transform="matrix(1,0,0,-1,2942.0438,3196.1937)" d="M 0 0 C -30.286 5.633 -57.507 -12.439 -68.684 -39.525 C -89.956 -90.902 -49.304 -131.644 -7.166 -129.57 C 2.253 -129.3 13.43 -126.145 26.906 -120.332 L 39.029 -153.186 C 6.309 -167.202 -17.937 -169.411 -48.854 -156.656 C -131.193 -122.63 -121.594 -24.832 -70.081 15.819 C -37.226 41.733 -2.344 39.885 31.593 26.455 C 67.332 12.304 111.633 -31.142 57.957 -58.949 C 59.084 -30.06 28.393 -5.138 0 0 " fill="#961b1f"/>
<path transform="matrix(1,0,0,-1,3175.9918,3235.493)" d="M 0 0 L 29.159 -204.338 L -8.067 -195.775 L -13.746 -153.862 C -35.063 -148.95 -67.917 -138.584 -66.385 -159.09 C -90.812 -145.525 -84.277 -122.044 -68.774 -113.977 C -54.217 -106.225 -34.973 -112.625 -19.064 -116.275 L -29.52 -45.744 C -65.574 -98.789 -83.196 -124.838 -114.608 -171.303 L -151.834 -162.741 L -50.837 -13.611 C -39.209 3.605 -23.796 10.005 0 0 " fill="#961b1f"/>
<path transform="matrix(1,0,0,-1,3398.988,3299.1739)" d="M 0 0 L -74.813 5.724 L -78.058 -37.091 L -3.245 -42.815 C -5.408 -59.85 -13.971 -77.517 -36.595 -75.804 L -80.762 -72.424 C -82.79 -98.924 -84.818 -125.109 -86.801 -151.338 L -123.261 -148.544 L -110.958 12.078 C -109.425 31.953 -100.727 44.076 -77.833 42.319 L 2.794 36.145 Z " fill="#961b1f"/>
<path transform="matrix(1,0,0,-1,3560.5118,3294.1715)" d="M 0 0 L -74.723 -3.605 L -72.65 -46.465 L 2.073 -42.86 C 2.073 -60.076 -4.236 -78.689 -26.68 -79.77 L -70.937 -81.889 L -68.864 -124.793 L 5.859 -121.188 L 7.616 -157.468 L -103.927 -162.831 L -111.678 -2.614 C -112.715 18.703 -99.735 31.548 -81.483 32.404 L -1.758 36.28 Z " fill="#961b1f"/>
<path transform="matrix(1,0,0,-1,3733.9786,3230.0848)" d="M 0 0 C 4.056 -22.309 -7.391 -38.488 -23.21 -41.327 L -44.978 -45.248 L -16.991 -200.057 L -53.766 -206.727 L -81.798 -51.918 L -124.027 -59.58 L -130.517 -23.616 Z " fill="#961b1f"/>
<path transform="matrix(1,0,0,-1,3893.1136,3219.1783)" d="M 0 0 L -71.072 -23.03 L -57.867 -63.861 L 13.205 -40.832 C 17.712 -57.417 16.495 -77.021 -4.822 -83.917 L -46.961 -97.572 L -33.756 -138.359 L 37.362 -115.374 L 48.493 -149.896 L -57.642 -184.193 L -106.946 -31.728 C -113.526 -11.447 -104.377 4.327 -86.981 9.96 L -11.132 34.477 Z " fill="#961b1f"/>
<path transform="matrix(1,0,0,-1,3990.235,3137.1995)" d="M 0 0 C 73.281 35.378 119.07 -65.168 76.255 -110.146 L 146.606 -144.398 L 105.955 -164.048 L 27.987 -126.055 C 16.27 -120.332 11.628 -106.901 13.385 -95.905 C 20.281 -101.178 37.947 -93.877 45.068 -88.919 C 69.585 -70.937 49.304 -16.179 11.132 -34.567 L -17.036 -48.178 C 5.859 -95.544 28.753 -142.911 51.603 -190.277 L 18.478 -206.276 L -51.017 -62.464 C -59.805 -44.257 -58.363 -28.167 -38.173 -18.433 Z " fill="#961b1f"/>
<path transform="matrix(1,0,0,-1,4197.728,3244.7769)" d="M 0 0 C -29.114 46.42 -58.408 93.111 -87.567 139.531 C -97.256 154.989 -90.947 172.025 -72.063 183.562 C -37.767 128.94 -3.335 74.047 30.962 19.424 Z " fill="#961b1f"/>
<path transform="matrix(1,0,0,-1,4253.7028,2968.2398)" d="M 0 0 L 179.1 -102.71 L 149.491 -126.821 L 112.896 -105.504 C 95.95 -119.34 67.557 -138.809 84.683 -150.212 C 58.949 -161.163 44.437 -141.559 47.592 -124.388 C 50.476 -108.118 67.377 -96.896 80.041 -86.576 L 17.937 -51.468 C 37.587 -112.535 47.321 -142.46 64.627 -195.775 L 35.018 -219.887 L -20.551 -48.493 C -26.951 -28.708 -22.534 -12.664 0 0 " fill="#961b1f"/>
<path transform="matrix(1,0,0,-1,2491.4764,898.9873)" d="M 0 0 L -26.771 -24.833 C -48.471 -44.933 -72.695 -44.031 -92.074 -23.12 L -182.323 74.227 L -153.93 100.547 L -77.404 17.982 C -64.605 4.191 -54.397 .09 -33.508 19.469 L -25.193 27.176 Z " fill="#961b1f"/>
<path transform="matrix(1,0,0,-1,2531.677,866.35818)" d="M 0 0 L -45.361 -37.947 L -69.135 -9.554 L -23.773 28.393 Z " fill="#961b1f"/>
<path transform="matrix(1,0,0,-1,2618.0499,858.15579)" d="M 0 0 L -27.559 -20.866 L -46.916 4.687 L -19.357 25.553 Z M -41.666 -31.548 L -68.999 -52.234 L -88.356 -26.68 L -61.022 -5.994 Z M -57.935 80.627 C -49.079 68.954 -45.046 56.741 -45.609 44.167 C -46.037 29.655 -52.842 17.531 -65.619 7.887 L -91.849 -11.988 L -114.202 17.531 L -94.598 32.404 C -84.232 40.246 -84.458 51.513 -95.296 65.844 L -132.185 114.563 L -101.313 137.908 Z " fill="#961b1f"/>
<path transform="matrix(1,0,0,-1,2706.6534,744.2239)" d="M 0 0 L -35.919 -23.345 C -24.652 -52.279 -37.226 -78.599 -74.092 -102.575 L -91.105 -76.39 C -69.81 -62.509 -65.754 -45.384 -79.004 -25.013 L -135.227 61.428 L -102.575 82.655 L -54.487 8.743 L -20.19 31.052 Z " fill="#961b1f"/>
<path transform="matrix(1,0,0,-1,2749.1527,721.6448)" d="M 0 0 L -51.378 -29.204 L -69.675 2.974 L -18.298 32.178 Z " fill="#961b1f"/>
<path transform="matrix(1,0,0,-1,2796.0233,697.218)" d="M 0 0 L -52.459 -27.446 L -69.63 5.408 L -17.171 32.855 Z " fill="#961b1f"/>
<path transform="matrix(1,0,0,-1,2881.7427,708.2595)" d="M 0 0 L -31.277 -14.061 L -44.392 15.188 L -13.16 29.249 Z M -47.412 -21.317 L -78.644 -35.378 L -91.804 -6.129 L -60.526 7.932 Z M 21.768 60.076 L -91.668 9.059 L -106.856 42.86 L -83.691 53.27 C -71.838 58.633 -69.675 69.27 -76.931 85.404 L -102.214 141.649 L -66.656 157.648 L -41.913 102.665 C -37.722 93.336 -35.243 84.457 -34.522 75.399 L 6.58 93.876 Z " fill="#961b1f"/>
<path transform="matrix(1,0,0,-1,3013.161,609.47048)" d="M 0 0 L -117.537 -41.913 L -129.976 -6.986 L -106 1.577 C -93.741 5.949 -90.497 16.495 -96.446 33.17 L -117.177 91.263 L -80.401 104.377 L -60.166 47.592 C -56.696 37.947 -55.208 28.798 -55.208 19.695 L -12.484 34.928 Z M -90.361 123.171 L -122.675 111.633 L -133.356 141.604 L -101.042 153.141 Z M -139.35 105.684 L -171.619 94.147 L -182.345 124.117 L -150.031 135.655 Z " fill="#961b1f"/>
<path transform="matrix(1,0,0,-1,3108.0743,521.00198)" d="M 0 0 C -5.318 21.182 -15.999 29.61 -31.818 25.644 L -34.522 24.968 C -42.049 23.075 -47.141 18.388 -49.71 10.591 C -51.783 4.056 -51.918 -3.38 -49.936 -11.177 C -47.727 -20.01 -44.077 -26.5 -38.623 -31.142 C -32.449 -36.415 -25.193 -38.038 -16.901 -35.919 C -9.104 -33.981 -3.696 -29.475 -.676 -22.128 C 1.938 -15.503 2.118 -8.338 0 0 M -30.872 79.545 L -64.132 71.162 L -71.884 101.989 L -38.623 110.371 Z M 37.046 10.456 C 41.643 -7.797 39.705 -23.931 31.277 -38.038 C 23.12 -52.099 9.509 -61.518 -8.969 -66.205 L -107.172 -90.902 L -116.23 -54.983 L -75.985 -44.843 C -80.897 -37.812 -84.322 -29.835 -86.576 -20.957 C -95.95 16.314 -78.599 45.834 -41.282 55.208 C -22.489 59.94 -5.859 58.453 8.383 50.611 C 22.534 43.04 32.223 29.52 37.046 10.456 " fill="#961b1f"/>
<path transform="matrix(1,0,0,-1,3267.1192,556.06497)" d="M 0 0 L -36.054 -5.678 C -65.304 -10.275 -84.908 4.011 -89.325 32.134 L -109.921 163.281 L -71.703 169.275 L -54.217 58.093 C -51.287 39.525 -45.113 30.421 -16.946 34.838 L -5.769 36.595 Z " fill="#961b1f"/>
<path transform="matrix(1,0,0,-1,3318.001,551.6033)" d="M 0 0 L -58.904 -6.174 L -62.78 30.736 L -3.831 36.911 Z " fill="#961b1f"/>
<path transform="matrix(1,0,0,-1,3370.9559,547.9978)" d="M 0 0 L -59.084 -4.056 L -61.653 32.945 L -2.569 37.001 Z " fill="#961b1f"/>
<path transform="matrix(1,0,0,-1,3554.698,548.0427)" d="M 0 0 L -201.454 3.064 L -200.913 40.156 L -41.508 37.722 C -44.888 67.962 -67.512 90.992 -96.851 91.443 L -166.616 92.479 L -109.921 179.956 L -63.951 179.235 L -99.645 127.182 L -78.328 126.866 C -25.553 120.512 1.217 79.41 .225 14.376 Z " fill="#961b1f"/>
</g>
<g id="Layer-1" data-name="Layer 3">
</g>
</g>
</g>
</svg>
