<?xml version="1.0" encoding="UTF-8" standalone="no"?>
<!DOCTYPE svg PUBLIC "-//W3C//DTD SVG 1.1//EN" "http://www.w3.org/Graphics/SVG/1.1/DTD/svg11.dtd">
<svg xmlns="http://www.w3.org/2000/svg" xmlns:xlink="http://www.w3.org/1999/xlink" version="1.1" width="164.549pt" height="113.386pt" viewBox="0 0 164.549 113.386">
<g enable-background="new">

<g id="Layer-1" data-name="Layer 3">
<clipPath id="cp2">
<path transform="matrix(1,0,0,-1,0,113.386)" d="M 0 113.386 L 164.549 113.386 L 164.549 0 L 0 0 Z "/>
</clipPath>
<g clip-path="url(#cp2)">
<path transform="matrix(1,0,0,-1,86.1833,93.4595)" d="M 0 0 C -7.689 .599 -14.802 2.875 -20.937 6.394 C -14.853 1.59 -7.326 -1.523 .983 -2.169 C 12.344 -3.054 22.971 .842 30.895 7.823 C 22.333 2.117 11.511 -.896 0 0 " fill="#961b1f"/>
<path transform="matrix(1,0,0,-1,81.6391,17.766503)" d="M 0 0 C 7.513 1.743 14.981 1.713 21.891 .203 C 14.643 2.953 6.528 3.657 -1.59 1.773 C -12.69 -.802 -21.653 -7.715 -27.109 -16.758 C -20.661 -8.74 -11.247 -2.609 0 0 " fill="#961b1f"/>
<path transform="matrix(1,0,0,-1,83.3779,30.209305)" d="M 0 0 C 4.317 1.002 8.609 .984 12.58 .117 C 8.415 1.697 3.752 2.101 -.914 1.019 C -7.293 -.461 -12.444 -4.434 -15.579 -9.63 C -11.873 -5.022 -6.463 -1.5 0 0 " fill="#961b1f"/>
<path transform="matrix(1,0,0,-1,91.3914,81.3201)" d="M 0 0 C -4.184 -.218 -8.177 .507 -11.729 1.972 C -8.114 -.188 -3.84 -1.336 .682 -1.1 C 6.865 -.777 12.316 2.07 16.094 6.388 C 11.882 2.712 6.264 .327 0 0 " fill="#961b1f"/>
<path transform="matrix(1,0,0,-1,25.9595,98.3047)" d="M 0 0 C -2.442 .399 -4.457 1.207 -6.046 2.43 C -7.636 3.652 -8.826 5.069 -9.617 6.686 C -10.409 8.3 -10.808 9.98 -10.817 11.727 C -10.825 13.473 -10.469 15.07 -9.75 16.516 C -9.03 17.964 -7.974 19.135 -6.583 20.03 C -5.192 20.926 -3.491 21.321 -1.478 21.217 C -.936 21.11 -.404 20.882 .119 20.534 C .939 19.937 1.436 19.165 1.608 18.214 C 1.781 17.262 1.57 16.376 .975 15.556 C .388 14.698 -.386 14.171 -1.352 13.976 C -2.317 13.779 -3.209 13.978 -4.03 14.573 C -4.358 14.772 -4.632 15.002 -4.855 15.267 C -5.646 14.597 -6.164 13.665 -6.409 12.474 C -6.655 11.281 -6.614 10.051 -6.283 8.78 C -5.954 7.51 -5.312 6.343 -4.358 5.285 C -3.405 4.226 -2.11 3.519 -.473 3.164 C .658 2.923 1.845 2.945 3.088 3.228 C 4.33 3.51 5.497 4.013 6.593 4.738 C 7.688 5.462 8.637 6.379 9.439 7.488 C 10.241 8.598 10.773 9.839 11.034 11.214 C 11.391 13.01 11.304 14.667 10.774 16.188 C 10.245 17.706 9.492 19.162 8.518 20.554 C 7.542 21.945 6.455 23.31 5.255 24.645 C 4.055 25.982 2.953 27.403 1.951 28.907 C .948 30.411 .138 32.02 -.479 33.738 C -1.096 35.455 -1.287 37.376 -1.05 39.501 C -.823 41.342 -.253 42.913 .664 44.208 C 1.578 45.505 2.68 46.528 3.968 47.279 C 5.254 48.03 6.656 48.51 8.175 48.723 C 9.693 48.934 11.205 48.885 12.711 48.577 C 14.3 48.251 15.687 47.694 16.873 46.911 C 18.057 46.126 18.997 45.243 19.694 44.26 C 20.389 43.278 20.837 42.264 21.032 41.219 C 21.227 40.174 21.153 39.211 20.812 38.334 C 20.412 37.362 19.718 36.745 18.729 36.486 C 17.74 36.223 16.788 36.34 15.873 36.832 C 15.004 37.295 14.417 37.997 14.109 38.935 C 13.799 39.873 13.873 40.794 14.329 41.701 C 14.783 42.607 15.404 43.155 16.192 43.347 C 15.773 43.92 15.318 44.365 14.822 44.683 C 14.329 44.999 13.782 45.242 13.184 45.414 C 12.118 45.711 11.04 45.815 9.949 45.728 C 8.857 45.641 7.882 45.363 7.022 44.896 C 6.163 44.426 5.466 43.78 4.933 42.956 C 4.398 42.129 4.156 41.128 4.206 39.947 C 4.198 38.673 4.642 37.38 5.539 36.07 C 6.435 34.758 7.501 33.4 8.738 31.993 C 9.976 30.586 11.244 29.087 12.547 27.496 C 13.848 25.908 14.938 24.166 15.817 22.275 C 16.696 20.383 17.217 18.325 17.382 16.099 C 17.547 13.875 17.102 11.422 16.047 8.742 C 15.392 7.191 14.486 5.818 13.327 4.621 C 12.168 3.425 10.856 2.449 9.392 1.694 C 7.926 .94 6.375 .414 4.741 .113 C 3.105 -.187 1.524 -.224 0 0 " fill="#961b1f"/>
<path transform="matrix(1,0,0,-1,45.7215,73.7561)" d="M 0 0 C .304 .708 .598 1.458 .884 2.242 C 1.169 3.025 1.433 3.777 1.676 4.492 C 1.918 5.207 2.117 5.861 2.27 6.453 C 2.424 7.047 2.552 7.536 2.658 7.919 C 2.788 9.341 2.919 10.676 3.053 11.919 C 3.186 13.164 3.293 14.272 3.375 15.247 C 3.502 16.35 3.602 17.409 3.674 18.42 L 7.668 19.394 C 7.458 17.157 7.272 14.905 7.11 12.64 C 6.948 10.695 6.765 8.593 6.56 6.339 C 6.355 4.083 6.172 1.981 6.011 .035 C 6.515 1.39 7.087 2.789 7.728 4.24 C 8.368 5.686 9.04 7.003 9.745 8.189 C 10.449 9.372 11.191 10.327 11.966 11.053 C 12.743 11.779 13.52 12.098 14.297 12.008 C 14.783 11.969 15.116 11.621 15.295 10.972 C 15.473 10.32 15.558 9.525 15.548 8.589 C 15.537 7.653 15.473 6.654 15.355 5.593 C 15.236 4.529 15.125 3.558 15.022 2.679 C 14.918 1.799 14.867 1.072 14.869 .497 C 14.87 -.081 14.984 -.34 15.208 -.285 C 15.546 -.203 15.893 .001 16.252 .326 C 16.609 .652 16.958 1.055 17.297 1.536 C 17.637 2.015 17.978 2.536 18.318 3.095 C 18.659 3.656 19.003 4.196 19.353 4.72 C 19.701 5.241 20.032 5.599 20.342 5.795 C 20.652 5.989 20.905 6.051 21.101 5.98 C 21.298 5.908 21.408 5.736 21.435 5.465 C 21.461 5.193 21.385 4.857 21.205 4.455 C 20.54 2.943 19.822 1.575 19.046 .352 C 18.357 -.73 17.543 -1.751 16.606 -2.716 C 15.669 -3.681 14.6 -4.308 13.399 -4.6 C 12.5 -4.821 11.83 -4.725 11.393 -4.314 C 10.955 -3.906 10.676 -3.328 10.554 -2.582 C 10.431 -1.838 10.406 -1 10.477 -.068 C 10.548 .862 10.635 1.728 10.738 2.529 C 10.841 3.329 10.926 3.994 10.995 4.529 C 11.063 5.061 11.003 5.307 10.816 5.261 C 10.628 5.215 10.374 4.914 10.053 4.358 C 9.73 3.804 9.383 3.112 9.008 2.285 C 8.634 1.459 8.247 .56 7.849 -.412 C 7.449 -1.384 7.076 -2.298 6.73 -3.157 C 6.383 -4.017 6.096 -4.753 5.868 -5.364 C 5.638 -5.978 5.501 -6.348 5.454 -6.479 L 5.467 -6.535 L 1.023 -7.62 C 1.15 -6.833 1.27 -5.82 1.385 -4.58 C 1.499 -3.34 1.627 -1.949 1.767 -.405 C 1.473 -.992 1.19 -1.379 .918 -1.565 C .644 -1.751 .408 -1.798 .208 -1.708 C .007 -1.619 -.123 -1.411 -.182 -1.088 C -.24 -.765 -.18 -.402 0 0 " fill="#961b1f"/>
<path transform="matrix(1,0,0,-1,72.2214,61.930704)" d="M 0 0 C -.617 .248 -1.137 .18 -1.561 -.2 C -1.984 -.583 -2.319 -1.082 -2.566 -1.698 C -2.813 -2.315 -2.99 -2.973 -3.097 -3.675 C -3.205 -4.377 -3.231 -4.921 -3.176 -5.303 C -2.522 -5.383 -1.906 -5.183 -1.327 -4.704 C -.748 -4.226 -.288 -3.666 .052 -3.027 C .393 -2.387 .582 -1.775 .618 -1.19 C .654 -.605 .448 -.208 0 0 M 5.566 -4.006 C 5.784 -3.597 6.046 -3.284 6.352 -3.07 C 6.657 -2.856 6.919 -2.751 7.14 -2.759 C 7.359 -2.764 7.508 -2.887 7.587 -3.125 C 7.665 -3.366 7.609 -3.747 7.419 -4.271 C 7.191 -4.801 6.816 -5.548 6.296 -6.51 C 5.776 -7.472 5.149 -8.449 4.419 -9.441 C 3.687 -10.436 2.851 -11.325 1.91 -12.11 C .969 -12.896 -.021 -13.356 -1.061 -13.491 C -2.252 -13.661 -3.287 -13.447 -4.169 -12.846 C -5.05 -12.248 -5.745 -11.434 -6.254 -10.406 C -6.762 -9.379 -7.077 -8.212 -7.196 -6.91 C -7.315 -5.608 -7.184 -4.355 -6.802 -3.148 C -6.42 -1.943 -5.78 -.862 -4.88 .093 C -3.98 1.046 -2.781 1.706 -1.28 2.072 C .07 2.401 1.145 2.188 1.946 1.429 C 2.747 .67 3.194 -.265 3.285 -1.373 C 3.378 -2.484 3.083 -3.6 2.402 -4.719 C 1.722 -5.837 .574 -6.595 -1.038 -6.988 C -1.301 -7.053 -1.54 -7.09 -1.755 -7.103 C -1.97 -7.117 -2.181 -7.108 -2.387 -7.078 C -2.593 -7.05 -2.803 -7.001 -3.018 -6.935 C -3.002 -7.327 -2.909 -7.712 -2.737 -8.087 C -2.566 -8.463 -2.339 -8.786 -2.054 -9.053 C -1.771 -9.321 -1.434 -9.519 -1.046 -9.642 C -.658 -9.767 -.239 -9.772 .211 -9.662 C .81 -9.517 1.369 -9.242 1.887 -8.837 C 2.404 -8.434 2.884 -7.959 3.328 -7.413 C 3.77 -6.868 4.176 -6.292 4.546 -5.685 C 4.914 -5.08 5.254 -4.52 5.566 -4.006 " fill="#961b1f"/>
<path transform="matrix(1,0,0,-1,84.9354,58.8297)" d="M 0 0 C -.617 .247 -1.137 .179 -1.561 -.201 C -1.984 -.584 -2.32 -1.083 -2.566 -1.698 C -2.813 -2.315 -2.991 -2.974 -3.097 -3.676 C -3.205 -4.377 -3.231 -4.921 -3.177 -5.304 C -2.522 -5.384 -1.905 -5.183 -1.327 -4.705 C -.748 -4.226 -.289 -3.666 .053 -3.028 C .393 -2.387 .582 -1.775 .618 -1.19 C .654 -.606 .448 -.21 0 0 M 5.567 -4.006 C 5.784 -3.597 6.046 -3.284 6.351 -3.071 C 6.657 -2.856 6.919 -2.752 7.14 -2.76 C 7.36 -2.764 7.508 -2.888 7.587 -3.125 C 7.665 -3.367 7.609 -3.747 7.419 -4.271 C 7.19 -4.801 6.816 -5.549 6.297 -6.51 C 5.776 -7.473 5.15 -8.45 4.418 -9.441 C 3.686 -10.436 2.851 -11.325 1.91 -12.11 C .97 -12.896 -.021 -13.356 -1.061 -13.491 C -2.252 -13.662 -3.287 -13.448 -4.169 -12.847 C -5.05 -12.249 -5.745 -11.434 -6.254 -10.406 C -6.763 -9.379 -7.076 -8.213 -7.196 -6.911 C -7.315 -5.609 -7.184 -4.355 -6.802 -3.149 C -6.421 -1.944 -5.779 -.864 -4.88 .091 C -3.98 1.045 -2.781 1.706 -1.28 2.072 C .07 2.4 1.145 2.188 1.947 1.428 C 2.747 .669 3.194 -.265 3.286 -1.374 C 3.378 -2.485 3.083 -3.6 2.402 -4.719 C 1.722 -5.838 .575 -6.595 -1.037 -6.989 C -1.3 -7.053 -1.539 -7.091 -1.754 -7.103 C -1.97 -7.118 -2.181 -7.109 -2.387 -7.079 C -2.593 -7.051 -2.803 -7.002 -3.018 -6.936 C -3.002 -7.328 -2.908 -7.713 -2.737 -8.089 C -2.566 -8.463 -2.338 -8.786 -2.054 -9.054 C -1.77 -9.322 -1.434 -9.519 -1.046 -9.643 C -.658 -9.767 -.239 -9.773 .211 -9.664 C .81 -9.517 1.369 -9.243 1.887 -8.837 C 2.404 -8.434 2.884 -7.959 3.328 -7.413 C 3.77 -6.869 4.177 -6.292 4.546 -5.686 C 4.914 -5.08 5.254 -4.521 5.567 -4.006 " fill="#961b1f"/>
<path transform="matrix(1,0,0,-1,92.1812,58.969)" d="M 0 0 C -.447 .525 -.647 1.222 -.599 2.089 C -.551 2.954 -.357 3.786 -.015 4.585 C .326 5.383 .782 6.04 1.352 6.557 C 1.921 7.074 2.524 7.249 3.159 7.088 C 3.795 6.924 4.12 6.526 4.135 5.896 C 4.15 5.262 4.029 4.577 3.772 3.84 C 3.496 3.018 3.083 2.102 2.534 1.094 C 2.918 .988 3.387 .816 3.943 .573 C 4.498 .332 5.047 -.002 5.587 -.428 C 6.128 -.851 6.628 -1.355 7.088 -1.938 C 7.548 -2.521 7.87 -3.187 8.053 -3.938 C 8.09 -4.088 8.112 -4.221 8.122 -4.339 C 8.129 -4.456 8.147 -4.571 8.175 -4.682 C 8.655 -4.05 9.121 -3.389 9.57 -2.703 C 10.019 -2.018 10.431 -1.391 10.81 -.821 C 11.16 -.3 11.48 .056 11.771 .247 C 12.062 .437 12.306 .497 12.503 .425 C 12.699 .354 12.819 .184 12.865 -.082 C 12.909 -.35 12.842 -.684 12.662 -1.086 C 11.971 -2.327 11.248 -3.516 10.493 -4.655 C 9.812 -5.615 9.025 -6.582 8.13 -7.554 C 7.236 -8.527 6.281 -9.298 5.266 -9.862 C 4.59 -10.187 3.854 -10.426 3.057 -10.58 C 2.213 -10.707 1.492 -10.604 .895 -10.273 C .298 -9.942 -.132 -9.52 -.396 -9.008 C -.659 -8.497 -.726 -7.977 -.598 -7.447 C -.468 -6.92 -.08 -6.517 .568 -6.239 C 1.328 -5.935 1.81 -5.918 2.015 -6.185 C 2.219 -6.454 2.327 -6.815 2.339 -7.269 C 2.35 -7.723 2.376 -8.152 2.415 -8.561 C 2.455 -8.968 2.705 -9.136 3.164 -9.064 C 3.66 -8.982 3.974 -8.678 4.103 -8.148 C 4.232 -7.622 4.206 -6.983 4.023 -6.233 C 3.84 -5.482 3.524 -4.675 3.075 -3.811 C 2.626 -2.948 2.072 -2.139 1.411 -1.385 L .173 -4.131 C -.112 -4.758 -.398 -5.175 -.684 -5.383 C -.971 -5.593 -1.224 -5.654 -1.444 -5.568 C -1.663 -5.483 -1.803 -5.278 -1.861 -4.955 C -1.92 -4.631 -1.859 -4.269 -1.679 -3.867 Z " fill="#961b1f"/>
<path transform="matrix(1,0,0,-1,102.99,59.79)" d="M 0 0 C .305 .708 .599 1.457 .885 2.242 C 1.17 3.025 1.434 3.776 1.677 4.492 C 1.92 5.207 2.118 5.86 2.27 6.453 C 2.425 7.046 2.553 7.536 2.659 7.919 C 2.789 9.34 2.92 10.675 3.054 11.919 C 3.187 13.163 3.295 14.272 3.375 15.247 C 3.503 16.35 3.603 17.408 3.675 18.419 L 7.669 19.393 C 7.459 17.157 7.273 14.905 7.11 12.64 C 6.949 10.694 6.766 8.593 6.561 6.338 C 6.356 4.083 6.172 1.98 6.012 .035 C 6.516 1.389 7.088 2.789 7.729 4.239 C 8.369 5.685 9.041 7.002 9.746 8.187 C 10.45 9.371 11.191 10.327 11.967 11.052 C 12.744 11.779 13.521 12.098 14.297 12.008 C 14.785 11.968 15.117 11.621 15.296 10.97 C 15.474 10.32 15.558 9.525 15.549 8.588 C 15.538 7.653 15.474 6.653 15.356 5.592 C 15.237 4.529 15.126 3.557 15.023 2.679 C 14.919 1.799 14.868 1.071 14.87 .496 C 14.871 -.081 14.984 -.34 15.209 -.285 C 15.546 -.203 15.894 .001 16.253 .326 C 16.61 .652 16.959 1.055 17.298 1.536 C 17.638 2.015 17.979 2.536 18.319 3.095 C 18.659 3.655 19.004 4.196 19.354 4.72 C 19.702 5.241 20.033 5.599 20.343 5.795 C 20.653 5.989 20.906 6.051 21.102 5.98 C 21.299 5.908 21.409 5.735 21.436 5.465 C 21.462 5.193 21.385 4.857 21.206 4.455 C 20.541 2.943 19.823 1.575 19.047 .352 C 18.358 -.73 17.544 -1.753 16.607 -2.716 C 15.67 -3.681 14.601 -4.309 13.4 -4.602 C 12.501 -4.821 11.831 -4.725 11.394 -4.315 C 10.956 -3.906 10.676 -3.328 10.555 -2.582 C 10.432 -1.838 10.407 -1.001 10.478 -.068 C 10.549 .861 10.635 1.728 10.739 2.528 C 10.841 3.329 10.926 3.994 10.996 4.529 C 11.064 5.061 11.005 5.307 10.817 5.261 C 10.629 5.215 10.374 4.913 10.054 4.358 C 9.732 3.804 9.384 3.112 9.009 2.284 C 8.635 1.459 8.248 .559 7.849 -.412 C 7.449 -1.384 7.077 -2.299 6.731 -3.157 C 6.384 -4.018 6.097 -4.754 5.868 -5.364 C 5.639 -5.978 5.502 -6.349 5.455 -6.48 L 5.468 -6.536 L 1.024 -7.62 C 1.151 -6.834 1.271 -5.82 1.386 -4.58 C 1.501 -3.341 1.628 -1.949 1.768 -.405 C 1.474 -.993 1.191 -1.379 .919 -1.565 C .646 -1.751 .409 -1.799 .208 -1.708 C .008 -1.619 -.122 -1.411 -.181 -1.088 C -.239 -.766 -.179 -.402 0 0 " fill="#961b1f"/>
<path transform="matrix(1,0,0,-1,131.535,51.4589)" d="M 0 0 C .317 1.468 .274 2.541 -.129 3.218 C -.533 3.893 -1.142 4.112 -1.958 3.873 C -2.578 3.642 -3.11 3.096 -3.555 2.232 C -4 1.369 -4.348 .309 -4.598 -.943 C -4.733 -1.691 -4.841 -2.431 -4.92 -3.167 C -5 -3.901 -5.036 -4.565 -5.03 -5.161 C -5.025 -5.755 -4.966 -6.238 -4.856 -6.608 C -4.746 -6.978 -4.569 -7.174 -4.325 -7.193 C -3.867 -7.282 -3.407 -7.089 -2.945 -6.619 C -2.485 -6.15 -2.064 -5.55 -1.686 -4.822 C -1.307 -4.094 -.965 -3.296 -.66 -2.426 C -.356 -1.557 -.136 -.748 0 0 M -2.534 6.236 C -1.232 6.435 -.157 6.101 .691 5.234 C .71 5.478 .728 5.692 .743 5.873 C .759 6.056 .789 6.213 .837 6.343 L .924 6.721 L 4.974 7.709 C 4.911 6.502 4.83 5.37 4.73 4.312 C 4.64 3.376 4.558 2.452 4.482 1.54 C 4.407 .628 4.348 -.072 4.309 -.558 C 4.227 -1.531 4.154 -2.414 4.09 -3.205 C 4.024 -3.995 4.104 -4.363 4.329 -4.309 C 4.666 -4.226 5.014 -4.022 5.372 -3.698 C 5.73 -3.371 6.078 -2.969 6.418 -2.487 C 6.758 -2.009 7.098 -1.487 7.439 -.928 C 7.779 -.368 8.124 .172 8.472 .695 C 8.822 1.217 9.152 1.576 9.463 1.771 C 9.773 1.966 10.026 2.028 10.222 1.956 C 10.419 1.884 10.529 1.712 10.556 1.442 C 10.582 1.17 10.505 .834 10.325 .431 C 9.66 -1.08 8.941 -2.448 8.167 -3.671 C 7.477 -4.754 6.663 -5.776 5.727 -6.74 C 4.789 -7.704 3.72 -8.332 2.52 -8.625 C 1.508 -8.871 .79 -8.739 .367 -8.226 C -.056 -7.714 -.317 -7.012 -.415 -6.121 C -1.161 -7.456 -2.009 -8.546 -2.954 -9.392 C -3.901 -10.239 -4.85 -10.579 -5.804 -10.415 C -6.469 -10.301 -7.059 -9.997 -7.575 -9.507 C -8.092 -9.018 -8.488 -8.368 -8.765 -7.561 C -9.041 -6.756 -9.188 -5.828 -9.206 -4.778 C -9.223 -3.73 -9.088 -2.575 -8.8 -1.312 C -8.55 -.378 -8.215 .53 -7.794 1.407 C -7.373 2.285 -6.878 3.071 -6.313 3.765 C -5.747 4.459 -5.14 5.024 -4.491 5.462 C -3.842 5.896 -3.19 6.155 -2.534 6.236 " fill="#961b1f"/>
<path transform="matrix(1,0,0,-1,147.0708,34.0206)" d="M 0 0 C -.3 .084 -.553 -.056 -.761 -.424 C -.969 -.793 -1.149 -1.324 -1.297 -2.015 C -1.447 -2.708 -1.571 -3.542 -1.67 -4.521 C -1.77 -5.498 -1.874 -6.577 -1.983 -7.757 C -1.613 -6.831 -1.25 -5.918 -.893 -5.016 C -.537 -4.116 -.258 -3.303 -.057 -2.578 C .144 -1.854 .266 -1.258 .311 -.789 C .355 -.321 .252 -.058 0 0 M -2.676 -15.911 C -2.758 -16.884 -2.83 -17.768 -2.895 -18.558 C -2.962 -19.348 -2.881 -19.716 -2.656 -19.662 C -2.319 -19.58 -1.972 -19.376 -1.613 -19.051 C -1.256 -18.724 -.897 -18.319 -.539 -17.834 C -.18 -17.35 .169 -16.827 .509 -16.269 C .85 -15.707 1.176 -15.171 1.488 -14.657 C 1.838 -14.136 2.167 -13.777 2.477 -13.582 C 2.787 -13.387 3.04 -13.325 3.237 -13.397 C 3.433 -13.469 3.543 -13.641 3.571 -13.912 C 3.597 -14.183 3.52 -14.52 3.34 -14.922 C 2.676 -16.434 1.957 -17.801 1.181 -19.025 C .492 -20.107 -.322 -21.128 -1.259 -22.093 C -2.196 -23.058 -3.265 -23.685 -4.464 -23.977 C -5.328 -24.188 -5.974 -24.098 -6.408 -23.706 C -6.841 -23.315 -7.123 -22.768 -7.256 -22.064 C -7.387 -21.362 -7.422 -20.566 -7.361 -19.677 C -7.299 -18.789 -7.21 -17.932 -7.093 -17.109 C -7.004 -16.173 -6.907 -15.147 -6.802 -14.027 C -6.698 -12.909 -6.578 -11.767 -6.445 -10.603 C -6.312 -9.437 -6.188 -8.275 -6.073 -7.113 C -5.96 -5.954 -5.829 -4.859 -5.682 -3.829 C -5.342 -1.482 -4.637 .27 -3.567 1.424 C -2.497 2.579 -1.22 2.96 .267 2.568 C 1.164 2.31 1.751 1.777 2.028 .971 C 2.304 .163 2.295 -.901 2.002 -2.224 C 1.709 -3.548 1.175 -5.109 .403 -6.907 C -.372 -8.704 -1.336 -10.738 -2.492 -13.005 C -2.551 -13.577 -2.599 -14.115 -2.634 -14.619 C -2.67 -15.126 -2.685 -15.555 -2.676 -15.911 " fill="#961b1f"/>
<path transform="matrix(1,0,0,-1,68.8726,54.510004)" d="M 0 0 L -2.806 -.627 C -3.268 -2.318 -4.536 -3.55 -6.237 -3.93 C -8.798 -4.504 -11.315 -2.805 -11.94 -.012 L -12.263 1.427 L -10.226 1.882 L -9.946 .632 C -9.52 -1.274 -8.275 -2.4 -6.645 -2.035 C -5.046 -1.678 -4.371 -.259 -4.826 1.777 L -6.314 8.425 L -4.277 8.881 L -2.617 1.462 L -.436 1.95 Z " fill="#961b1f"/>
<path transform="matrix(1,0,0,-1,76.7054,44.6774)" d="M 0 0 L -1.804 -.404 L -2.178 1.27 L -.374 1.674 Z M -1.933 2.089 L -3.737 1.684 L -4.111 3.357 L -2.308 3.761 Z M -2.735 -.613 L -4.553 -1.019 L -4.927 .655 L -3.109 1.061 Z M 6.768 -6.566 L -8.504 -9.983 L -8.94 -8.033 L -7.108 -7.623 C -6.439 -7.474 -6.156 -7.028 -6.384 -6.01 L -7.113 -2.752 L -5.061 -2.293 L -4.352 -5.463 C -4.232 -6.002 -4.209 -6.516 -4.271 -6.989 L -2.977 -6.699 C -2.293 -6.545 -2.041 -6.031 -2.237 -5.158 L -2.982 -1.828 L -.946 -1.372 L -.237 -4.543 C -.116 -5.081 -.093 -5.595 -.155 -6.068 L 1.14 -5.778 C 1.823 -5.625 2.075 -5.11 1.88 -4.237 L 1.135 -.907 L 3.185 -.449 L 3.891 -3.603 C 4.012 -4.143 4.035 -4.656 3.962 -5.147 L 6.332 -4.616 Z " fill="#961b1f"/>
<path transform="matrix(1,0,0,-1,87.9242,52.7829)" d="M 0 0 L -1.805 -.404 L -2.182 1.284 L -.378 1.688 Z M -2.735 -.613 L -4.539 -1.016 L -4.916 .672 L -3.113 1.075 Z M 1.801 2.938 L -4.744 1.474 L -5.181 3.423 L -3.842 3.723 C -3.159 3.876 -2.929 4.416 -3.137 5.348 L -3.862 8.59 L -1.812 9.05 L -1.102 5.879 C -.982 5.341 -.948 4.845 -1.006 4.358 L 1.365 4.888 Z " fill="#961b1f"/>
<path transform="matrix(1,0,0,-1,97.6457,39.992906)" d="M 0 0 L -1.804 -.403 L -2.178 1.271 L -.374 1.674 Z M -1.933 2.089 L -3.737 1.686 L -4.111 3.358 L -2.308 3.761 Z M -2.734 -.611 L -4.553 -1.019 L -4.927 .655 L -3.108 1.062 Z M 3.862 -3.609 C 4.308 -5.602 3.307 -7.34 1.62 -7.717 L -4.94 -9.185 L -4.937 -9.198 L -4.954 -9.188 L -8.533 -9.988 L -8.969 -8.039 L -7.136 -7.629 C -6.467 -7.479 -6.181 -7.05 -6.416 -6.001 L -7.142 -2.759 L -5.09 -2.299 L -4.381 -5.469 C -4.261 -6.008 -4.237 -6.522 -4.3 -6.994 L -3.005 -6.705 C -2.322 -6.552 -2.07 -6.037 -2.266 -5.163 L -3.011 -1.834 L -.975 -1.378 L -.265 -4.548 C -.145 -5.088 -.122 -5.601 -.183 -6.073 L 1.111 -5.784 C 1.795 -5.631 2.046 -5.116 1.85 -4.242 L 1.105 -.913 L 3.156 -.454 Z " fill="#961b1f"/>
<path transform="matrix(1,0,0,-1,78.4396,84.8225)" d="M 0 0 C -.684 .127 -1.3 -.281 -1.552 -.893 C -2.033 -2.054 -1.114 -2.975 -.162 -2.928 C .051 -2.922 .303 -2.851 .608 -2.719 L .882 -3.462 C .143 -3.778 -.405 -3.828 -1.104 -3.54 C -2.965 -2.771 -2.748 -.561 -1.584 .357 C -.841 .943 -.053 .901 .714 .598 C 1.522 .278 2.523 -.704 1.31 -1.332 C 1.335 -.679 .642 -.116 0 0 " fill="#961b1f"/>
<path transform="matrix(1,0,0,-1,83.7262,85.7106)" d="M 0 0 L .659 -4.618 L -.182 -4.424 L -.311 -3.477 C -.792 -3.366 -1.535 -3.132 -1.5 -3.595 C -2.052 -3.288 -1.904 -2.758 -1.554 -2.576 C -1.225 -2.4 -.79 -2.545 -.431 -2.628 L -.667 -1.034 C -1.482 -2.232 -1.88 -2.821 -2.59 -3.871 L -3.431 -3.678 L -1.149 -.308 C -.886 .081 -.538 .226 0 0 " fill="#961b1f"/>
<path transform="matrix(1,0,0,-1,88.7654,87.149707)" d="M 0 0 L -1.691 .129 L -1.764 -.838 L -.073 -.967 C -.122 -1.352 -.316 -1.752 -.827 -1.713 L -1.825 -1.637 C -1.871 -2.235 -1.917 -2.827 -1.961 -3.42 L -2.785 -3.357 L -2.507 .273 C -2.473 .722 -2.276 .996 -1.759 .956 L .063 .817 Z " fill="#961b1f"/>
<path transform="matrix(1,0,0,-1,92.4155,87.036609)" d="M 0 0 L -1.689 -.081 L -1.642 -1.05 L .047 -.969 C .047 -1.358 -.096 -1.778 -.603 -1.803 L -1.603 -1.85 L -1.556 -2.82 L .132 -2.739 L .172 -3.558 L -2.348 -3.68 L -2.524 -.059 C -2.547 .423 -2.254 .713 -1.841 .732 L -.04 .82 Z " fill="#961b1f"/>
<path transform="matrix(1,0,0,-1,96.3354,85.5884)" d="M 0 0 C .092 -.504 -.167 -.87 -.524 -.934 L -1.016 -1.022 L -.384 -4.521 L -1.215 -4.672 L -1.848 -1.173 L -2.803 -1.346 L -2.949 -.534 Z " fill="#961b1f"/>
<path transform="matrix(1,0,0,-1,99.9315,85.3419)" d="M 0 0 L -1.606 -.52 L -1.308 -1.443 L .298 -.923 C .4 -1.297 .373 -1.74 -.109 -1.896 L -1.061 -2.205 L -.763 -3.127 L .844 -2.607 L 1.096 -3.387 L -1.303 -4.162 L -2.417 -.717 C -2.565 -.259 -2.359 .098 -1.966 .225 L -.252 .779 Z " fill="#961b1f"/>
<path transform="matrix(1,0,0,-1,102.1262,83.4894)" d="M 0 0 C 1.656 .799 2.691 -1.473 1.723 -2.489 L 3.313 -3.263 L 2.394 -3.707 L .632 -2.849 C .368 -2.719 .263 -2.416 .302 -2.167 C .458 -2.286 .858 -2.121 1.018 -2.009 C 1.572 -1.603 1.114 -.366 .252 -.781 L -.385 -1.089 C .132 -2.159 .65 -3.229 1.166 -4.3 L .418 -4.661 L -1.153 -1.412 C -1.351 -1 -1.319 -.637 -.863 -.417 Z " fill="#961b1f"/>
<path transform="matrix(1,0,0,-1,106.815,85.9204)" d="M 0 0 C -.658 1.049 -1.32 2.104 -1.979 3.153 C -2.198 3.502 -2.055 3.887 -1.628 4.148 C -.853 2.914 -.075 1.673 .7 .439 Z " fill="#961b1f"/>
<path transform="matrix(1,0,0,-1,108.0799,79.6713)" d="M 0 0 L 4.047 -2.321 L 3.378 -2.866 L 2.551 -2.384 C 2.168 -2.697 1.527 -3.137 1.914 -3.394 C 1.332 -3.642 1.004 -3.199 1.075 -2.811 C 1.141 -2.443 1.523 -2.19 1.809 -1.956 L .405 -1.163 C .849 -2.543 1.069 -3.219 1.46 -4.424 L .791 -4.969 L -.464 -1.096 C -.609 -.649 -.509 -.286 0 0 " fill="#961b1f"/>
<path transform="matrix(1,0,0,-1,68.2578,32.9112)" d="M 0 0 L -.605 -.561 C -1.095 -1.015 -1.643 -.995 -2.081 -.522 L -4.12 1.677 L -3.478 2.272 L -1.749 .406 C -1.46 .095 -1.229 .002 -.757 .44 L -.569 .614 Z " fill="#961b1f"/>
<path transform="matrix(1,0,0,-1,69.1663,32.173906)" d="M 0 0 L -1.025 -.858 L -1.562 -.216 L -.537 .642 Z " fill="#961b1f"/>
<path transform="matrix(1,0,0,-1,71.1181,31.988503)" d="M 0 0 L -.623 -.472 L -1.06 .106 L -.437 .577 Z M -.942 -.713 L -1.559 -1.18 L -1.997 -.603 L -1.379 -.135 Z M -1.309 1.822 C -1.109 1.558 -1.018 1.282 -1.031 .998 C -1.04 .67 -1.194 .396 -1.483 .178 L -2.076 -.271 L -2.581 .396 L -2.138 .732 C -1.903 .909 -1.909 1.164 -2.153 1.488 L -2.987 2.589 L -2.289 3.116 Z " fill="#961b1f"/>
<path transform="matrix(1,0,0,-1,73.1203,29.413903)" d="M 0 0 L -.812 -.528 C -.557 -1.181 -.841 -1.776 -1.674 -2.318 L -2.059 -1.726 C -1.578 -1.413 -1.486 -1.026 -1.785 -.565 L -3.056 1.388 L -2.318 1.868 L -1.231 .198 L -.456 .702 Z " fill="#961b1f"/>
<path transform="matrix(1,0,0,-1,74.0807,28.903702)" d="M 0 0 L -1.161 -.66 L -1.574 .067 L -.413 .727 Z " fill="#961b1f"/>
<path transform="matrix(1,0,0,-1,75.1399,28.3517)" d="M 0 0 L -1.185 -.62 L -1.573 .122 L -.388 .742 Z " fill="#961b1f"/>
<path transform="matrix(1,0,0,-1,77.0769,28.601204)" d="M 0 0 L -.707 -.318 L -1.003 .343 L -.297 .661 Z M -1.071 -.482 L -1.777 -.799 L -2.075 -.139 L -1.368 .179 Z M .492 1.358 L -2.071 .205 L -2.415 .969 L -1.891 1.204 C -1.623 1.325 -1.574 1.565 -1.738 1.93 L -2.31 3.201 L -1.506 3.562 L -.947 2.32 C -.852 2.109 -.796 1.909 -.78 1.704 L .149 2.121 Z " fill="#961b1f"/>
<path transform="matrix(1,0,0,-1,80.0466,26.368805)" d="M 0 0 L -2.656 -.947 L -2.937 -.158 L -2.395 .036 C -2.118 .134 -2.045 .373 -2.179 .75 L -2.648 2.062 L -1.817 2.359 L -1.36 1.075 C -1.281 .858 -1.248 .651 -1.248 .445 L -.282 .789 Z M -2.042 2.783 L -2.772 2.523 L -3.014 3.2 L -2.283 3.461 Z M -3.149 2.388 L -3.878 2.128 L -4.121 2.805 L -3.39 3.065 Z " fill="#961b1f"/>
<path transform="matrix(1,0,0,-1,82.1915,24.369706)" d="M 0 0 C -.12 .479 -.362 .669 -.719 .579 L -.78 .564 C -.95 .521 -1.065 .416 -1.123 .239 C -1.17 .092 -1.173 -.076 -1.128 -.253 C -1.079 -.452 -.996 -.599 -.873 -.704 C -.733 -.823 -.569 -.86 -.382 -.812 C -.206 -.768 -.084 -.666 -.015 -.5 C .044 -.35 .048 -.188 0 0 M -.698 1.798 L -1.449 1.608 L -1.624 2.305 L -.873 2.494 Z M .837 .236 C .941 -.176 .897 -.541 .707 -.86 C .522 -1.177 .215 -1.39 -.203 -1.496 L -2.422 -2.054 L -2.627 -1.242 L -1.717 -1.013 C -1.828 -.854 -1.905 -.674 -1.956 -.474 C -2.168 .369 -1.776 1.036 -.933 1.248 C -.508 1.355 -.132 1.321 .189 1.144 C .509 .973 .728 .667 .837 .236 " fill="#961b1f"/>
<path transform="matrix(1,0,0,-1,85.7855,25.162003)" d="M 0 0 L -.815 -.128 C -1.476 -.232 -1.919 .091 -2.019 .726 L -2.484 3.69 L -1.62 3.825 L -1.225 1.313 C -1.159 .893 -1.019 .687 -.383 .787 L -.13 .827 Z " fill="#961b1f"/>
<path transform="matrix(1,0,0,-1,86.9353,25.061203)" d="M 0 0 L -1.331 -.14 L -1.419 .695 L -.087 .834 Z " fill="#961b1f"/>
<path transform="matrix(1,0,0,-1,88.132,24.979699)" d="M 0 0 L -1.335 -.092 L -1.393 .744 L -.058 .836 Z " fill="#961b1f"/>
<path transform="matrix(1,0,0,-1,92.2841,24.980706)" d="M 0 0 L -4.552 .069 L -4.54 .907 L -.938 .852 C -1.014 1.536 -1.526 2.056 -2.189 2.066 L -3.765 2.09 L -2.484 4.067 L -1.445 4.05 L -2.252 2.874 L -1.77 2.867 C -.577 2.723 .027 1.794 .005 .325 Z " fill="#961b1f"/>
</g>
</g>
</g>
</svg>
